<svg id="svg" version="1.1" xmlns="http://www.w3.org/2000/svg" xmlns:xlink="http://www.w3.org/1999/xlink" width="400" height="434.78260869565213" viewBox="0, 0, 400,434.78260869565213"><g id="svgg"><path id="path0" d="M276.800 106.362 C 275.150 106.516,272.720 106.932,271.400 107.287 C 270.080 107.642,268.076 108.052,266.947 108.197 L 264.895 108.462 264.646 110.331 C 264.169 113.902,262.439 115.710,258.846 116.391 C 256.119 116.908,256.119 116.909,255.787 118.902 C 255.136 122.812,253.914 124.099,249.827 125.179 L 247.454 125.806 246.900 128.299 C 246.171 131.582,244.819 132.968,241.697 133.633 C 238.854 134.239,238.639 134.453,238.037 137.280 C 237.413 140.211,235.799 141.736,232.623 142.395 C 230.221 142.894,229.875 143.261,229.416 145.800 C 228.830 149.038,227.655 150.166,223.808 151.184 L 221.415 151.817 220.971 153.808 C 220.077 157.822,218.795 159.202,215.386 159.818 C 213.167 160.220,212.400 160.695,212.400 161.668 C 212.400 165.096,210.274 167.712,206.897 168.438 C 203.951 169.072,203.758 169.241,203.454 171.456 C 202.964 175.033,201.476 176.389,196.804 177.513 C 195.509 177.824,195.362 178.022,194.783 180.224 C 193.750 184.156,192.718 185.217,189.336 185.828 C 186.958 186.257,186.495 186.649,186.188 188.495 C 185.557 192.285,183.744 194.122,180.080 194.684 C 178.091 194.989,177.746 195.329,177.433 197.282 C 176.830 201.056,175.127 202.750,171.295 203.388 C 169.439 203.697,169.058 204.153,168.616 206.600 C 168.030 209.838,166.855 210.966,163.008 211.983 L 160.616 212.616 159.983 215.008 C 158.964 218.862,157.818 220.052,154.600 220.598 C 151.749 221.082,151.703 221.119,151.408 223.113 C 150.829 227.027,148.990 228.818,144.834 229.515 L 143.068 229.811 142.545 232.405 C 141.857 235.819,140.323 237.337,136.833 238.058 C 134.486 238.542,134.399 238.606,134.178 239.979 C 133.515 244.096,131.737 246.412,128.800 246.986 C 128.030 247.137,127.111 247.340,126.758 247.438 C 126.261 247.577,125.919 248.944,125.238 253.508 C 123.507 265.126,122.293 268.217,118.756 270.022 C 116.427 271.211,115.292 283.061,116.419 294.434 C 117.049 300.799,116.380 300.333,125.338 300.656 C 135.216 301.013,138.024 300.552,139.493 298.331 C 141.724 294.960,146.499 293.206,155.600 292.415 C 161.918 291.865,163.031 291.530,163.396 290.066 C 163.892 288.078,165.182 286.520,167.097 285.594 C 168.144 285.088,169.270 284.525,169.600 284.341 C 169.930 284.158,170.853 283.654,171.650 283.221 C 172.448 282.789,173.455 281.833,173.889 281.099 C 174.322 280.364,175.254 279.321,175.959 278.781 C 176.664 278.242,178.357 276.651,179.721 275.247 C 185.377 269.422,189.806 265.200,190.258 265.200 C 190.456 265.200,190.969 264.549,191.397 263.753 C 191.826 262.957,192.812 261.835,193.588 261.258 C 194.365 260.682,196.080 259.081,197.400 257.700 C 201.664 253.239,202.674 252.238,205.159 250.000 C 206.502 248.790,207.826 247.545,208.101 247.233 C 208.375 246.921,209.500 245.790,210.600 244.720 C 211.700 243.649,212.870 242.471,213.200 242.102 C 213.530 241.733,214.318 240.974,214.952 240.416 C 215.586 239.857,216.576 238.882,217.152 238.248 C 217.728 237.614,218.709 236.624,219.331 236.048 C 221.332 234.193,225.109 230.622,225.865 229.868 C 226.269 229.466,227.320 228.426,228.200 227.557 C 229.080 226.688,229.947 225.815,230.127 225.616 C 230.480 225.225,233.791 221.903,234.464 221.264 C 234.968 220.786,238.327 217.429,238.866 216.866 C 239.374 216.334,242.171 213.572,242.985 212.800 C 243.332 212.470,244.319 211.480,245.177 210.600 C 246.035 209.720,247.010 208.730,247.345 208.400 C 247.679 208.070,248.729 207.024,249.676 206.076 C 250.624 205.129,251.625 204.139,251.900 203.876 C 252.546 203.261,255.395 200.411,256.300 199.476 C 257.202 198.544,259.744 196.002,260.676 195.100 C 261.609 194.197,264.215 191.591,265.038 190.738 C 266.233 189.500,268.855 186.858,269.217 186.528 C 269.415 186.348,270.288 185.480,271.157 184.600 C 272.026 183.720,273.038 182.702,273.407 182.338 C 273.775 181.974,274.796 180.956,275.676 180.076 C 276.556 179.196,277.533 178.234,277.847 177.938 C 278.160 177.642,279.119 176.680,279.977 175.800 C 280.835 174.920,281.838 173.902,282.207 173.538 C 282.575 173.174,283.596 172.156,284.476 171.276 C 285.356 170.396,286.329 169.434,286.638 169.138 C 287.544 168.270,290.340 165.463,291.100 164.659 C 291.485 164.252,292.618 163.082,293.617 162.059 C 294.616 161.037,295.840 159.620,296.336 158.911 C 296.832 158.202,297.790 157.302,298.463 156.911 C 299.587 156.259,301.721 153.489,303.200 150.764 C 304.169 148.978,305.458 147.689,307.125 146.838 C 309.577 145.587,309.801 144.626,309.791 135.400 C 309.780 124.865,309.724 124.622,307.065 123.446 C 304.711 122.405,303.101 120.723,302.387 118.559 C 301.646 116.316,299.820 113.881,298.251 113.046 C 296.935 112.346,294.809 109.845,294.793 108.978 C 294.781 108.319,290.693 106.867,288.200 106.636 C 283.226 106.176,279.706 106.091,276.800 106.362 M288.558 119.030 C 290.911 119.720,294.521 121.812,295.442 123.019 C 300.839 130.096,299.189 145.895,292.752 148.777 C 291.202 149.471,288.400 152.471,288.400 153.437 C 288.400 154.326,285.719 157.056,284.296 157.617 C 282.401 158.364,280.814 159.955,279.927 162.000 C 278.877 164.420,277.784 165.534,275.400 166.613 C 273.153 167.630,271.574 169.174,270.817 171.096 C 270.249 172.537,267.521 175.200,266.613 175.200 C 265.639 175.200,263.207 177.613,262.214 179.564 C 261.095 181.761,259.885 182.954,257.962 183.758 C 256.390 184.415,253.600 187.256,253.600 188.200 C 253.600 189.120,250.946 191.846,249.496 192.416 C 247.708 193.118,245.299 195.487,244.784 197.049 C 244.317 198.464,241.559 201.200,240.600 201.200 C 239.656 201.200,236.815 203.990,236.158 205.562 C 235.376 207.433,234.166 208.694,232.200 209.683 C 230.001 210.789,228.494 212.271,227.402 214.400 C 226.299 216.552,225.078 217.756,223.195 218.550 C 221.477 219.274,219.555 221.263,218.461 223.450 C 217.582 225.205,215.513 227.200,214.570 227.200 C 213.651 227.200,210.805 230.014,210.158 231.562 C 209.359 233.474,208.165 234.692,206.000 235.802 C 203.775 236.944,202.275 238.512,201.418 240.595 C 200.558 242.685,199.527 243.738,197.478 244.622 C 195.198 245.606,193.703 247.051,192.760 249.184 C 191.689 251.604,190.948 252.359,188.600 253.417 C 186.226 254.487,184.667 256.065,184.039 258.034 C 183.478 259.793,181.754 261.504,179.901 262.141 C 177.958 262.809,175.783 264.833,175.240 266.478 C 174.713 268.076,173.214 269.606,171.200 270.600 C 169.106 271.634,167.636 273.178,166.717 275.309 C 165.193 278.843,161.815 280.483,154.598 281.194 C 144.134 282.223,144.120 282.227,142.137 283.972 C 135.313 289.979,129.946 287.218,128.364 276.885 C 127.539 271.493,129.010 267.329,132.340 265.630 C 134.535 264.511,134.641 264.288,135.567 258.821 C 136.777 251.672,138.030 249.729,141.890 249.012 C 143.791 248.660,144.797 247.772,144.809 246.438 C 144.835 243.399,147.171 240.967,150.800 240.203 C 152.687 239.805,153.132 239.377,153.443 237.660 C 154.093 234.080,155.509 232.589,159.200 231.603 C 161.298 231.042,161.999 230.554,162.002 229.651 C 162.013 226.426,164.401 223.429,167.306 222.993 C 169.845 222.612,170.301 222.172,171.017 219.412 C 171.888 216.051,174.215 214.034,177.251 214.009 C 178.626 213.997,179.082 213.389,179.630 210.832 C 180.269 207.857,181.611 206.503,184.784 205.634 C 187.585 204.868,187.616 204.834,188.555 201.572 C 189.368 198.746,190.535 197.661,193.637 196.849 C 196.319 196.146,196.496 195.960,197.230 193.071 C 197.883 190.503,199.429 189.013,202.088 188.392 C 204.460 187.837,205.600 187.037,205.600 185.925 C 205.600 183.232,207.814 180.589,210.781 179.741 C 213.638 178.924,214.258 178.344,214.582 176.178 C 215.020 173.257,217.751 170.800,220.558 170.800 C 221.820 170.800,223.021 169.279,223.342 167.274 C 223.767 164.615,225.654 162.861,228.800 162.204 C 230.760 161.794,231.463 161.037,232.014 158.744 C 232.690 155.924,234.004 154.535,236.735 153.754 C 239.572 152.943,240.274 152.330,240.604 150.374 C 241.109 147.386,243.705 144.893,246.400 144.806 C 247.957 144.757,248.806 143.851,249.397 141.611 C 250.345 138.016,251.725 136.709,255.150 136.162 C 257.136 135.844,257.324 135.626,258.180 132.641 C 259.050 129.607,260.385 128.272,263.207 127.611 C 265.904 126.980,266.643 126.368,266.994 124.474 C 267.535 121.557,269.066 119.995,272.363 118.997 C 275.085 118.174,285.710 118.195,288.558 119.030 M212.480 290.480 C 212.164 290.796,212.000 292.480,212.000 295.400 C 212.000 298.320,212.164 300.004,212.480 300.320 C 213.222 301.062,317.121 300.987,318.100 300.243 C 318.691 299.795,318.800 299.037,318.800 295.400 C 318.800 291.763,318.691 291.005,318.100 290.557 C 317.121 289.813,213.222 289.738,212.480 290.480 " stroke="none" fill="#ec9414" fill-rule="evenodd"></path><path id="path1" d="M275.200 93.589 C 270.311 94.025,265.600 96.869,265.600 99.384 C 265.600 99.640,264.535 100.168,263.233 100.558 C 260.499 101.377,257.945 103.374,257.190 105.284 C 256.482 107.077,255.268 108.358,253.622 109.047 C 251.349 109.999,249.738 111.466,248.719 113.511 C 247.534 115.890,246.535 116.915,244.317 118.029 C 241.999 119.192,240.894 120.261,239.800 122.400 C 238.722 124.508,237.605 125.604,235.400 126.718 C 233.451 127.703,231.960 129.258,230.862 131.450 C 230.011 133.148,227.921 135.200,227.041 135.200 C 226.177 135.200,223.403 137.854,222.591 139.458 C 221.522 141.569,220.038 143.165,218.571 143.783 C 216.664 144.585,214.616 146.589,213.770 148.480 C 212.960 150.289,211.354 151.902,209.629 152.640 C 207.925 153.369,206.015 155.202,205.137 156.950 C 204.001 159.214,202.921 160.316,200.752 161.420 C 198.823 162.402,196.990 164.274,196.240 166.029 C 195.533 167.681,193.905 169.378,192.447 169.981 C 190.475 170.797,188.879 172.273,187.938 174.150 C 186.872 176.278,185.318 177.932,183.771 178.583 C 181.868 179.383,179.817 181.387,178.970 183.273 C 178.200 184.986,176.190 187.166,175.360 187.188 C 174.354 187.215,171.578 189.699,170.560 191.483 C 169.036 194.156,168.084 195.135,165.952 196.220 C 163.937 197.246,162.173 199.097,161.358 201.042 C 160.801 202.373,158.294 204.800,157.477 204.800 C 156.562 204.800,153.984 207.263,153.144 208.939 C 152.080 211.064,150.523 212.729,149.000 213.372 C 147.091 214.178,145.237 215.954,144.220 217.952 C 143.124 220.105,142.018 221.197,139.800 222.318 C 137.821 223.318,136.226 224.962,135.454 226.800 C 134.737 228.507,133.147 230.038,130.950 231.138 C 129.136 232.047,127.356 233.942,126.572 235.800 C 125.995 237.166,124.450 238.685,122.385 239.917 C 120.790 240.867,119.493 242.934,118.818 245.600 C 118.031 248.711,117.571 249.513,115.967 250.574 C 112.581 252.815,111.602 255.632,110.399 266.600 C 109.408 275.639,109.217 276.331,107.288 277.882 C 101.957 282.169,102.138 294.576,107.572 297.386 C 108.812 298.027,109.003 298.377,109.845 301.549 C 110.887 305.477,112.700 307.033,117.352 307.993 C 118.646 308.260,120.896 309.090,122.352 309.837 C 125.659 311.534,126.228 311.531,128.737 309.806 C 131.194 308.115,132.358 307.845,140.800 307.006 C 154.600 305.635,157.162 304.941,160.600 301.647 C 162.404 299.919,163.111 299.568,167.800 298.076 C 173.495 296.264,174.805 295.395,176.036 292.612 C 176.947 290.551,177.729 289.872,179.907 289.251 C 182.446 288.526,184.213 286.766,185.094 284.083 C 185.746 282.097,186.049 281.707,187.422 281.083 C 192.136 278.941,192.702 278.412,193.920 275.006 C 194.653 272.959,194.883 272.769,198.325 271.361 C 200.423 270.503,201.819 268.923,202.458 266.682 C 203.116 264.376,203.647 263.857,206.162 263.065 C 208.684 262.270,210.512 260.454,211.241 258.021 C 211.827 256.066,212.886 255.082,215.079 254.458 C 217.216 253.850,218.939 252.127,219.833 249.704 C 220.795 247.097,221.279 246.624,224.003 245.631 C 226.626 244.674,227.618 243.659,228.644 240.877 C 229.579 238.339,230.128 237.780,232.274 237.179 C 234.578 236.534,236.614 234.539,237.251 232.304 C 237.902 230.016,238.830 229.065,240.969 228.493 C 243.238 227.886,245.410 225.755,246.052 223.504 C 246.718 221.168,247.270 220.627,250.003 219.631 C 252.626 218.674,253.618 217.659,254.644 214.877 C 255.394 212.842,256.270 211.602,256.962 211.596 C 259.499 211.573,262.771 208.601,263.603 205.564 C 264.081 203.818,264.898 203.058,267.000 202.401 C 269.677 201.565,271.071 200.237,272.027 197.615 C 273.035 194.850,273.561 194.321,275.995 193.625 C 278.218 192.989,280.215 190.954,280.845 188.683 C 281.332 186.928,282.817 185.200,283.838 185.200 C 286.008 185.200,288.680 182.694,289.595 179.800 C 290.273 177.656,290.899 177.017,292.906 176.416 C 295.828 175.543,298.400 172.852,298.400 170.670 C 298.400 169.560,299.937 168.190,301.795 167.643 C 304.150 166.950,306.211 164.948,306.888 162.696 C 307.602 160.324,308.366 159.399,310.075 158.839 C 313.255 157.795,314.100 156.617,316.025 150.544 C 316.979 147.536,317.629 146.220,318.764 145.000 C 320.574 143.055,321.071 141.939,321.981 137.779 C 322.955 133.332,322.013 130.189,318.572 126.400 C 317.872 125.630,317.181 124.460,317.035 123.800 C 315.377 116.314,313.449 112.614,310.444 111.149 C 308.230 110.071,308.008 109.796,306.232 105.954 C 305.143 103.598,304.566 103.168,299.892 101.229 C 298.605 100.696,297.760 100.022,297.292 99.160 C 294.476 93.960,288.347 92.414,275.200 93.589 M288.342 96.989 C 290.820 97.574,291.616 97.985,293.399 99.599 C 294.562 100.652,296.838 102.278,298.457 103.212 C 302.191 105.365,302.905 106.016,305.028 109.200 C 305.982 110.630,307.910 112.898,309.312 114.240 C 312.234 117.035,313.488 119.689,315.594 127.524 C 316.263 130.013,317.064 132.658,317.375 133.402 C 317.879 134.607,317.858 135.028,317.183 137.257 C 316.766 138.633,316.304 140.566,316.156 141.552 C 315.354 146.902,311.816 154.504,309.444 155.975 C 307.731 157.038,305.967 158.982,304.277 161.668 C 303.344 163.151,302.231 164.300,301.060 164.986 C 299.171 166.093,296.941 168.406,295.084 171.185 C 294.470 172.104,293.406 173.158,292.718 173.528 C 290.692 174.617,288.413 176.818,286.962 179.087 C 286.110 180.419,284.825 181.709,283.503 182.559 C 281.063 184.129,279.989 185.215,278.254 187.866 C 277.564 188.921,276.397 190.148,275.661 190.592 C 273.342 191.992,271.165 194.094,269.762 196.287 C 268.912 197.615,267.621 198.913,266.303 199.763 C 263.937 201.290,262.266 202.993,260.661 205.515 C 260.060 206.458,258.631 207.835,257.484 208.575 C 255.136 210.091,253.463 211.798,251.861 214.315 C 251.260 215.258,249.831 216.635,248.684 217.375 C 246.316 218.904,244.540 220.706,243.214 222.927 C 242.712 223.767,241.559 224.926,240.651 225.503 C 238.195 227.065,236.480 228.753,234.963 231.103 C 234.124 232.403,232.803 233.724,231.503 234.563 C 229.186 236.059,227.545 237.716,225.823 240.302 C 225.199 241.238,224.039 242.396,223.244 242.876 C 220.771 244.369,219.460 245.609,217.695 248.126 C 216.635 249.637,215.053 251.201,213.514 252.259 C 212.024 253.284,210.233 255.037,209.018 256.660 C 207.813 258.270,206.038 260.011,204.613 260.980 C 203.111 262.002,201.584 263.524,200.493 265.088 C 198.783 267.539,198.350 267.953,194.800 270.531 C 193.810 271.249,192.270 272.909,191.377 274.219 C 190.361 275.710,188.865 277.208,187.377 278.227 C 186.070 279.121,184.408 280.651,183.683 281.627 C 180.818 285.486,180.375 285.938,178.324 287.103 C 177.156 287.767,174.940 289.596,173.400 291.168 C 170.275 294.358,168.793 295.173,162.114 297.377 C 159.647 298.191,156.978 299.298,156.183 299.837 C 151.918 302.731,148.729 303.584,134.660 305.590 C 119.048 307.816,113.706 306.192,111.159 298.445 C 110.170 295.435,108.993 292.925,108.089 291.897 C 107.444 291.163,107.735 289.139,109.453 282.400 C 111.333 275.032,111.974 272.130,112.589 268.200 C 113.541 262.120,114.836 258.273,116.936 255.291 C 117.905 253.915,119.290 251.216,120.014 249.294 C 121.696 244.827,122.776 243.214,125.194 241.565 C 126.266 240.833,127.562 239.529,128.072 238.669 C 129.441 236.359,131.483 234.134,133.139 233.145 C 135.257 231.880,136.770 230.400,137.608 228.773 C 138.352 227.325,141.282 224.400,141.987 224.400 C 142.639 224.400,145.207 221.947,145.843 220.717 C 146.778 218.910,149.193 216.420,150.814 215.593 C 152.291 214.839,153.344 213.726,155.723 210.400 C 156.432 209.410,158.122 207.880,159.479 207.000 C 161.214 205.875,162.385 204.716,163.423 203.098 C 165.057 200.549,166.710 198.952,169.105 197.605 C 169.980 197.114,171.124 195.997,171.647 195.123 C 173.238 192.471,174.475 191.142,176.643 189.755 C 178.688 188.447,179.177 187.931,181.720 184.400 C 182.433 183.410,184.165 181.842,185.570 180.916 C 187.395 179.714,188.544 178.569,189.592 176.911 C 191.166 174.421,192.682 172.967,195.148 171.581 C 195.999 171.103,197.124 169.993,197.647 169.115 C 199.185 166.536,200.804 164.820,203.176 163.250 C 204.455 162.404,205.933 160.966,206.654 159.864 C 208.427 157.157,209.473 156.135,212.109 154.534 C 213.682 153.578,214.672 152.635,215.212 151.576 C 216.281 149.481,218.144 147.417,219.928 146.352 C 222.043 145.089,223.566 143.607,224.400 142.000 C 225.279 140.306,226.868 138.754,229.456 137.061 C 230.521 136.364,231.959 134.928,232.651 133.871 C 234.386 131.219,235.445 130.144,238.000 128.444 C 239.247 127.614,240.744 126.149,241.454 125.064 C 243.255 122.315,244.324 121.267,246.708 119.912 C 248.311 119.001,249.237 118.064,250.571 116.002 C 252.128 113.595,255.205 110.800,256.297 110.800 C 256.829 110.800,258.626 108.764,259.334 107.359 C 260.241 105.560,262.413 103.804,265.921 102.035 C 267.614 101.181,269.447 100.002,269.993 99.416 C 273.073 96.111,280.475 95.132,288.342 96.989 M278.873 124.611 C 275.925 125.746,274.954 126.400,272.077 129.189 C 270.909 130.321,268.881 131.941,267.571 132.787 C 266.155 133.702,264.483 135.275,263.448 136.663 C 261.521 139.251,260.144 140.596,257.904 142.078 C 257.082 142.622,255.844 143.863,255.154 144.834 C 253.313 147.427,251.641 149.090,249.489 150.471 C 248.391 151.176,246.970 152.613,246.150 153.849 C 244.677 156.068,241.764 158.884,239.991 159.803 C 239.437 160.091,238.395 161.233,237.676 162.343 C 236.310 164.450,233.349 167.292,231.544 168.228 C 230.963 168.529,229.639 169.966,228.600 171.421 C 227.483 172.986,225.710 174.790,224.256 175.839 C 222.905 176.814,220.981 178.734,219.980 180.106 C 218.979 181.478,216.866 183.590,215.285 184.800 C 213.704 186.010,211.844 187.866,211.151 188.925 C 210.458 189.984,208.909 191.604,207.708 192.525 C 205.086 194.535,204.067 195.520,201.260 198.758 C 200.083 200.116,198.157 201.843,196.979 202.596 C 195.802 203.349,194.550 204.524,194.197 205.207 C 193.231 207.073,190.821 209.596,188.800 210.857 C 187.810 211.474,186.179 213.107,185.176 214.485 C 184.172 215.864,182.372 217.747,181.176 218.672 C 178.452 220.775,177.575 221.652,175.472 224.376 C 174.547 225.572,172.664 227.372,171.285 228.376 C 169.907 229.379,168.275 231.010,167.659 232.000 C 166.564 233.760,162.275 238.000,161.590 238.000 C 161.400 238.000,160.225 239.355,158.979 241.011 C 157.608 242.833,155.717 244.732,154.192 245.821 C 152.702 246.884,151.146 248.437,150.390 249.616 C 149.103 251.621,146.324 254.327,144.360 255.487 C 142.626 256.512,140.447 261.661,139.367 267.286 C 139.041 268.983,138.508 271.128,138.181 272.053 C 137.457 274.105,138.020 274.911,141.224 276.411 L 143.229 277.350 147.710 276.636 C 152.795 275.825,153.597 275.489,156.406 272.995 C 157.513 272.011,159.107 270.856,159.946 270.427 C 160.786 269.999,162.446 268.534,163.636 267.173 C 164.826 265.811,166.670 263.865,167.734 262.848 C 171.124 259.610,174.967 255.767,176.019 254.565 C 176.579 253.924,177.871 252.770,178.890 252.000 C 179.909 251.230,181.430 249.710,182.271 248.622 C 184.204 246.121,185.376 244.955,187.723 243.200 C 188.752 242.430,190.474 240.679,191.549 239.310 C 192.624 237.940,194.397 236.113,195.488 235.251 C 196.580 234.388,198.177 232.820,199.037 231.768 C 199.896 230.715,201.474 229.032,202.542 228.027 C 203.610 227.022,205.626 225.030,207.023 223.600 C 208.419 222.170,210.297 220.280,211.195 219.400 C 212.093 218.520,214.075 216.540,215.600 215.000 C 217.124 213.460,219.006 211.570,219.782 210.800 C 221.598 208.996,226.596 203.998,228.400 202.182 C 229.170 201.406,231.060 199.524,232.600 198.000 C 234.140 196.475,236.120 194.494,237.000 193.597 C 237.880 192.700,239.860 190.721,241.400 189.200 C 242.940 187.678,244.830 185.789,245.600 185.002 C 246.370 184.216,248.260 182.340,249.800 180.834 C 251.340 179.328,253.337 177.309,254.238 176.348 C 255.138 175.387,256.819 173.807,257.972 172.837 C 259.125 171.867,260.751 170.149,261.586 169.019 C 262.421 167.889,264.279 166.102,265.715 165.048 C 267.150 163.993,269.141 162.081,270.137 160.798 C 271.134 159.514,272.924 157.728,274.115 156.829 C 275.306 155.930,277.154 154.004,278.222 152.549 C 279.290 151.094,281.079 149.228,282.196 148.403 C 285.028 146.311,286.619 144.382,287.970 141.402 C 288.608 139.995,289.776 137.998,290.565 136.964 C 292.399 134.563,292.385 134.434,290.010 131.812 C 288.916 130.603,287.567 128.718,287.011 127.622 C 285.084 123.818,282.968 123.036,278.873 124.611 M283.612 127.823 C 284.417 130.190,286.233 133.850,286.767 134.179 C 286.991 134.318,286.833 135.128,286.383 136.146 C 285.962 137.098,285.331 139.120,284.980 140.638 C 284.272 143.713,283.037 145.373,281.182 145.744 C 279.574 146.065,277.094 148.428,276.440 150.261 C 275.572 152.696,274.490 153.941,272.802 154.447 C 270.428 155.158,268.558 156.919,267.821 159.135 C 267.131 161.214,265.897 162.378,263.571 163.144 C 261.755 163.743,259.868 165.693,258.873 168.000 C 257.960 170.116,256.732 171.311,254.807 171.956 C 252.965 172.574,250.925 174.598,250.358 176.371 C 249.727 178.347,248.551 179.530,246.162 180.594 C 243.762 181.662,242.171 183.250,241.551 185.197 C 240.946 187.094,239.343 188.725,237.557 189.260 C 235.562 189.858,234.082 191.318,232.994 193.762 C 231.994 196.008,230.729 197.354,229.200 197.800 C 227.003 198.440,225.631 199.657,224.553 201.921 C 223.336 204.474,221.749 206.400,220.860 206.400 C 218.861 206.400,215.200 210.185,215.200 212.251 C 215.200 212.955,213.056 214.682,211.163 215.503 C 208.960 216.458,207.359 218.089,206.751 219.997 C 206.188 221.762,204.631 223.456,203.256 223.799 C 201.045 224.351,199.630 225.622,198.430 228.137 C 197.081 230.963,195.913 232.213,194.228 232.632 C 192.686 233.015,189.757 235.975,189.425 237.485 C 189.090 239.011,187.026 240.969,185.106 241.581 C 183.405 242.124,180.968 244.727,180.602 246.391 C 180.297 247.782,178.656 249.338,176.605 250.182 C 174.416 251.083,173.251 252.249,172.189 254.600 C 171.190 256.814,169.917 258.157,168.400 258.600 C 166.066 259.280,164.694 260.524,163.583 262.967 C 162.214 265.975,161.238 266.857,158.285 267.750 C 155.666 268.542,153.593 270.164,152.645 272.162 C 151.980 273.564,150.908 273.951,144.719 275.025 C 143.102 275.305,140.673 274.036,141.007 273.086 C 141.101 272.819,141.358 270.781,141.579 268.557 C 142.020 264.106,143.095 261.014,144.339 260.619 C 144.778 260.480,145.776 259.609,146.556 258.683 C 150.654 253.819,152.318 252.070,153.463 251.425 C 154.158 251.034,155.273 249.968,155.941 249.057 C 156.610 248.146,158.111 246.478,159.278 245.352 C 160.445 244.226,162.184 242.516,163.142 241.552 C 165.058 239.625,203.815 200.886,206.961 197.753 C 208.040 196.679,210.002 194.720,211.321 193.400 C 213.206 191.513,220.033 184.774,224.037 180.848 C 225.648 179.268,234.663 170.015,235.049 169.546 C 235.295 169.246,236.620 168.010,237.992 166.800 C 239.364 165.590,241.142 163.901,241.943 163.047 C 243.110 161.804,245.924 158.982,250.485 154.481 C 250.642 154.327,252.305 152.670,254.182 150.800 C 256.058 148.930,258.270 146.736,259.097 145.925 C 259.923 145.114,261.680 143.265,263.000 141.817 C 264.320 140.368,265.899 138.911,266.508 138.577 C 267.117 138.244,268.160 137.213,268.826 136.286 C 270.362 134.145,273.835 131.511,276.072 130.790 C 277.230 130.416,278.525 129.480,280.000 127.948 C 282.594 125.254,282.736 125.249,283.612 127.823 M218.800 280.125 C 217.150 280.622,214.810 281.415,213.600 281.886 C 212.390 282.357,210.791 282.967,210.047 283.242 C 205.944 284.756,204.666 287.318,204.474 294.421 C 204.187 305.009,205.077 306.086,217.549 310.239 L 220.498 311.222 268.827 311.111 L 317.156 311.000 318.478 309.736 C 319.205 309.041,320.484 308.192,321.320 307.848 C 328.707 304.815,331.200 301.673,331.200 295.400 C 331.200 289.078,329.123 286.409,321.611 283.077 C 320.627 282.641,319.329 281.791,318.726 281.188 C 317.045 279.506,317.541 279.524,268.200 279.367 L 221.800 279.219 218.800 280.125 M319.525 285.073 C 320.808 285.678,322.803 287.147,324.100 288.441 L 326.400 290.736 326.400 295.325 L 326.400 299.913 324.614 301.900 C 323.537 303.098,321.714 304.471,320.021 305.361 L 317.214 306.836 265.507 306.718 L 213.800 306.600 211.614 305.400 C 210.399 304.733,208.845 303.432,208.114 302.469 L 206.800 300.738 206.800 295.429 C 206.800 289.385,207.367 288.025,210.842 285.725 C 213.252 284.130,213.339 284.127,267.925 284.060 L 317.250 284.000 319.525 285.073 " stroke="none" fill="#5a3f1c" fill-rule="evenodd"></path><path id="path2" d="M0.000 217.200 L 0.000 434.400 200.000 434.400 L 400.000 434.400 400.000 217.200 L 400.000 0.000 200.000 0.000 L 0.000 0.000 0.000 217.200 M287.197 93.619 C 293.288 94.244,295.197 95.292,297.292 99.160 C 297.760 100.022,298.605 100.696,299.892 101.229 C 304.566 103.168,305.143 103.598,306.232 105.954 C 308.008 109.796,308.230 110.071,310.444 111.149 C 313.449 112.614,315.377 116.314,317.035 123.800 C 317.181 124.460,317.872 125.630,318.572 126.400 C 322.013 130.189,322.955 133.332,321.981 137.779 C 321.071 141.939,320.574 143.055,318.764 145.000 C 317.629 146.220,316.979 147.536,316.025 150.544 C 314.100 156.617,313.255 157.795,310.075 158.839 C 308.366 159.399,307.602 160.324,306.888 162.696 C 306.211 164.948,304.150 166.950,301.795 167.643 C 299.937 168.190,298.400 169.560,298.400 170.670 C 298.400 172.852,295.828 175.543,292.906 176.416 C 290.899 177.017,290.273 177.656,289.595 179.800 C 288.680 182.694,286.008 185.200,283.838 185.200 C 282.817 185.200,281.332 186.928,280.845 188.683 C 280.215 190.954,278.218 192.989,275.995 193.625 C 273.561 194.321,273.035 194.850,272.027 197.615 C 271.071 200.237,269.677 201.565,267.000 202.401 C 264.898 203.058,264.081 203.818,263.603 205.564 C 262.771 208.601,259.499 211.573,256.962 211.596 C 256.270 211.602,255.394 212.842,254.644 214.877 C 253.618 217.659,252.626 218.674,250.003 219.631 C 247.270 220.627,246.718 221.168,246.052 223.504 C 245.410 225.755,243.238 227.886,240.969 228.493 C 238.830 229.065,237.902 230.016,237.251 232.304 C 236.614 234.539,234.578 236.534,232.274 237.179 C 230.128 237.780,229.579 238.339,228.644 240.877 C 227.618 243.659,226.626 244.674,224.003 245.631 C 221.279 246.624,220.795 247.097,219.833 249.704 C 218.939 252.127,217.216 253.850,215.079 254.458 C 212.886 255.082,211.827 256.066,211.241 258.021 C 210.512 260.454,208.684 262.270,206.162 263.065 C 203.647 263.857,203.116 264.376,202.458 266.682 C 201.819 268.923,200.423 270.503,198.325 271.361 C 194.883 272.769,194.653 272.959,193.920 275.006 C 192.702 278.412,192.136 278.941,187.422 281.083 C 186.049 281.707,185.746 282.097,185.094 284.083 C 184.213 286.766,182.446 288.526,179.907 289.251 C 177.729 289.872,176.947 290.551,176.036 292.612 C 174.805 295.395,173.495 296.264,167.800 298.076 C 163.111 299.568,162.404 299.919,160.600 301.647 C 157.162 304.941,154.600 305.635,140.800 307.006 C 132.358 307.845,131.194 308.115,128.737 309.806 C 126.228 311.531,125.659 311.534,122.352 309.837 C 120.896 309.090,118.646 308.260,117.352 307.993 C 112.700 307.033,110.887 305.477,109.845 301.549 C 109.003 298.377,108.812 298.027,107.572 297.386 C 102.138 294.576,101.957 282.169,107.288 277.882 C 109.217 276.331,109.408 275.639,110.399 266.600 C 111.602 255.632,112.581 252.815,115.967 250.574 C 117.571 249.513,118.031 248.711,118.818 245.600 C 119.493 242.934,120.790 240.867,122.385 239.917 C 124.450 238.685,125.995 237.166,126.572 235.800 C 127.356 233.942,129.136 232.047,130.950 231.138 C 133.147 230.038,134.737 228.507,135.454 226.800 C 136.226 224.962,137.821 223.318,139.800 222.318 C 142.018 221.197,143.124 220.105,144.220 217.952 C 145.237 215.954,147.091 214.178,149.000 213.372 C 150.523 212.729,152.080 211.064,153.144 208.939 C 153.984 207.263,156.562 204.800,157.477 204.800 C 158.294 204.800,160.801 202.373,161.358 201.042 C 162.173 199.097,163.937 197.246,165.952 196.220 C 168.084 195.135,169.036 194.156,170.560 191.483 C 171.578 189.699,174.354 187.215,175.360 187.188 C 176.190 187.166,178.200 184.986,178.970 183.273 C 179.817 181.387,181.868 179.383,183.771 178.583 C 185.318 177.932,186.872 176.278,187.938 174.150 C 188.879 172.273,190.475 170.797,192.447 169.981 C 193.905 169.378,195.533 167.681,196.240 166.029 C 196.990 164.274,198.823 162.402,200.752 161.420 C 202.921 160.316,204.001 159.214,205.137 156.950 C 206.015 155.202,207.925 153.369,209.629 152.640 C 211.354 151.902,212.960 150.289,213.770 148.480 C 214.616 146.589,216.664 144.585,218.571 143.783 C 220.038 143.165,221.522 141.569,222.591 139.458 C 223.403 137.854,226.177 135.200,227.041 135.200 C 227.921 135.200,230.011 133.148,230.862 131.450 C 231.960 129.258,233.451 127.703,235.400 126.718 C 237.605 125.604,238.722 124.508,239.800 122.400 C 240.894 120.261,241.999 119.192,244.317 118.029 C 246.535 116.915,247.534 115.890,248.719 113.511 C 249.738 111.466,251.349 109.999,253.622 109.047 C 255.268 108.358,256.482 107.077,257.190 105.284 C 257.945 103.374,260.499 101.377,263.233 100.558 C 264.535 100.168,265.600 99.640,265.600 99.384 C 265.600 94.883,275.018 92.369,287.197 93.619 M280.000 127.948 C 278.525 129.480,277.230 130.416,276.072 130.790 C 273.835 131.511,270.362 134.145,268.826 136.286 C 268.160 137.213,267.117 138.244,266.508 138.577 C 265.899 138.911,264.320 140.368,263.000 141.817 C 261.680 143.265,259.923 145.114,259.097 145.925 C 258.270 146.736,256.058 148.930,254.182 150.800 C 252.305 152.670,250.642 154.327,250.485 154.481 C 245.924 158.982,243.110 161.804,241.943 163.047 C 241.142 163.901,239.364 165.590,237.992 166.800 C 236.620 168.010,235.295 169.246,235.049 169.546 C 234.663 170.015,225.648 179.268,224.037 180.848 C 220.033 184.774,213.206 191.513,211.321 193.400 C 210.002 194.720,208.040 196.679,206.961 197.753 C 203.815 200.886,165.058 239.625,163.142 241.552 C 162.184 242.516,160.445 244.226,159.278 245.352 C 158.111 246.478,156.610 248.146,155.941 249.057 C 155.273 249.968,154.158 251.034,153.463 251.425 C 152.318 252.070,150.654 253.819,146.556 258.683 C 145.776 259.609,144.778 260.480,144.339 260.619 C 143.095 261.014,142.020 264.106,141.579 268.557 C 141.358 270.781,141.101 272.819,141.007 273.086 C 140.673 274.036,143.102 275.305,144.719 275.025 C 150.908 273.951,151.980 273.564,152.645 272.162 C 153.593 270.164,155.666 268.542,158.285 267.750 C 161.238 266.857,162.214 265.975,163.583 262.967 C 164.694 260.524,166.066 259.280,168.400 258.600 C 169.917 258.157,171.190 256.814,172.189 254.600 C 173.251 252.249,174.416 251.083,176.605 250.182 C 178.656 249.338,180.297 247.782,180.602 246.391 C 180.968 244.727,183.405 242.124,185.106 241.581 C 187.026 240.969,189.090 239.011,189.425 237.485 C 189.757 235.975,192.686 233.015,194.228 232.632 C 195.913 232.213,197.081 230.963,198.430 228.137 C 199.630 225.622,201.045 224.351,203.256 223.799 C 204.631 223.456,206.188 221.762,206.751 219.997 C 207.359 218.089,208.960 216.458,211.163 215.503 C 213.056 214.682,215.200 212.955,215.200 212.251 C 215.200 210.185,218.861 206.400,220.860 206.400 C 221.749 206.400,223.336 204.474,224.553 201.921 C 225.631 199.657,227.003 198.440,229.200 197.800 C 230.729 197.354,231.994 196.008,232.994 193.762 C 234.082 191.318,235.562 189.858,237.557 189.260 C 239.343 188.725,240.946 187.094,241.551 185.197 C 242.171 183.250,243.762 181.662,246.162 180.594 C 248.551 179.530,249.727 178.347,250.358 176.371 C 250.925 174.598,252.965 172.574,254.807 171.956 C 256.732 171.311,257.960 170.116,258.873 168.000 C 259.868 165.693,261.755 163.743,263.571 163.144 C 265.897 162.378,267.131 161.214,267.821 159.135 C 268.558 156.919,270.428 155.158,272.802 154.447 C 274.490 153.941,275.572 152.696,276.440 150.261 C 277.094 148.428,279.574 146.065,281.182 145.744 C 283.037 145.373,284.272 143.713,284.980 140.638 C 285.331 139.120,285.962 137.098,286.383 136.146 C 286.833 135.128,286.991 134.318,286.767 134.179 C 286.233 133.850,284.417 130.190,283.612 127.823 C 282.736 125.249,282.594 125.254,280.000 127.948 M316.115 279.803 C 316.948 279.961,318.123 280.584,318.726 281.188 C 319.329 281.791,320.627 282.641,321.611 283.077 C 329.123 286.409,331.200 289.078,331.200 295.400 C 331.200 301.673,328.707 304.815,321.320 307.848 C 320.484 308.192,319.205 309.041,318.478 309.736 L 317.156 311.000 268.827 311.111 L 220.498 311.222 217.549 310.239 C 205.077 306.086,204.187 305.009,204.474 294.421 C 204.666 287.318,205.944 284.756,210.047 283.242 C 210.791 282.967,212.390 282.357,213.600 281.886 C 214.810 281.415,217.150 280.622,218.800 280.125 L 221.800 279.219 268.200 279.367 C 293.720 279.448,315.282 279.645,316.115 279.803 " stroke="none" fill="#141c1c" fill-rule="evenodd"></path><path id="path3" d="M280.600 99.086 C 276.095 99.710,273.904 100.420,272.328 101.768 C 271.425 102.541,269.407 103.666,267.843 104.268 C 264.434 105.579,263.044 106.637,261.246 109.288 C 260.501 110.387,259.179 111.761,258.309 112.343 C 255.535 114.196,253.555 116.109,252.172 118.270 C 251.404 119.471,250.093 120.827,249.114 121.433 C 246.821 122.852,244.677 124.946,243.320 127.092 C 242.618 128.203,241.197 129.520,239.484 130.648 C 237.599 131.891,236.350 133.088,235.414 134.550 C 234.045 136.691,232.571 138.117,229.683 140.096 C 228.803 140.699,227.441 142.160,226.656 143.342 C 225.241 145.474,223.800 146.874,221.037 148.800 C 220.248 149.350,218.765 151.023,217.741 152.519 C 216.566 154.235,215.253 155.604,214.182 156.232 C 212.576 157.173,210.184 159.577,208.033 162.414 C 207.501 163.115,206.042 164.433,204.791 165.344 C 202.385 167.095,201.112 168.467,199.659 170.871 C 199.171 171.680,197.832 172.965,196.684 173.727 C 194.011 175.501,192.573 176.936,191.122 179.279 C 190.444 180.373,189.173 181.648,188.079 182.331 C 185.700 183.816,183.994 185.516,182.420 187.969 C 181.608 189.234,180.290 190.477,178.605 191.567 C 176.681 192.811,175.610 193.883,174.362 195.812 C 173.211 197.592,171.996 198.856,170.446 199.884 C 167.834 201.618,166.817 202.646,164.974 205.417 C 164.196 206.586,162.929 207.830,161.960 208.374 C 159.925 209.518,157.495 211.966,156.321 214.055 C 155.782 215.015,154.421 216.303,152.753 217.432 C 150.826 218.737,149.539 220.019,148.240 221.929 C 146.947 223.829,145.673 225.100,143.828 226.334 C 142.218 227.409,140.698 228.852,139.824 230.134 C 137.761 233.159,137.626 233.297,134.939 235.113 C 133.373 236.172,132.063 237.461,131.339 238.657 C 130.168 240.589,128.508 242.357,125.576 244.792 C 123.754 246.304,123.350 247.071,121.992 251.600 C 121.105 254.557,119.696 257.684,117.305 262.000 C 116.122 264.135,114.353 270.729,113.817 275.000 C 113.679 276.100,113.308 278.350,112.993 280.000 C 111.908 285.679,111.554 290.991,112.164 292.469 C 112.465 293.201,113.028 295.150,113.415 296.800 C 114.667 302.147,115.692 302.979,121.801 303.600 C 131.227 304.559,144.197 302.302,151.245 298.477 C 152.870 297.595,155.280 296.566,156.600 296.191 C 157.920 295.816,159.900 295.249,161.000 294.931 C 165.033 293.768,169.731 291.237,170.860 289.620 C 172.118 287.819,174.027 286.303,176.900 284.824 C 178.570 283.965,179.383 283.166,180.872 280.921 C 182.156 278.985,183.337 277.739,184.636 276.950 C 187.023 275.499,188.693 273.834,190.119 271.483 C 190.766 270.416,192.000 269.166,193.044 268.519 C 195.942 266.723,197.185 265.596,197.977 264.050 C 198.954 262.139,201.284 259.779,203.123 258.836 C 204.782 257.985,205.861 256.885,207.144 254.739 C 208.077 253.177,210.118 251.275,212.750 249.513 C 213.643 248.916,214.851 247.656,215.436 246.713 C 217.006 244.183,217.940 243.251,220.600 241.562 C 222.349 240.451,223.388 239.410,224.431 237.719 C 225.769 235.551,227.321 234.128,230.448 232.200 C 231.162 231.760,232.402 230.320,233.204 229.000 C 234.567 226.757,236.105 225.333,239.253 223.400 C 239.969 222.960,241.163 221.557,241.906 220.282 C 243.175 218.104,245.533 215.936,247.444 215.192 C 248.396 214.820,249.515 213.488,251.231 210.684 C 251.978 209.462,253.081 208.375,254.275 207.684 C 256.657 206.305,258.705 204.257,260.084 201.875 C 260.775 200.681,261.862 199.578,263.084 198.831 C 266.124 196.970,267.137 196.053,267.880 194.489 C 268.772 192.608,271.131 190.256,273.163 189.219 C 274.798 188.385,275.114 188.034,277.299 184.634 C 278.064 183.444,279.271 182.259,280.355 181.634 C 282.661 180.303,284.718 178.235,286.091 175.864 C 286.811 174.621,287.821 173.611,289.064 172.891 C 291.454 171.507,293.503 169.460,294.877 167.086 C 295.652 165.746,296.736 164.723,298.739 163.439 C 301.071 161.944,301.736 161.258,302.822 159.219 C 304.054 156.907,305.314 155.552,308.481 153.131 C 310.437 151.636,312.961 144.405,313.623 138.400 C 314.579 129.728,311.791 120.827,306.478 115.591 C 304.962 114.097,303.310 111.980,302.670 110.711 C 301.290 107.973,300.731 107.450,297.622 105.979 C 296.279 105.344,294.329 104.234,293.290 103.513 C 290.616 101.658,283.516 98.681,282.200 98.864 C 281.980 98.895,281.260 98.995,280.600 99.086 M288.200 106.636 C 290.693 106.867,294.781 108.319,294.793 108.978 C 294.809 109.845,296.935 112.346,298.251 113.046 C 299.820 113.881,301.646 116.316,302.387 118.559 C 303.101 120.723,304.711 122.405,307.065 123.446 C 309.724 124.622,309.780 124.865,309.791 135.400 C 309.801 144.626,309.577 145.587,307.125 146.838 C 305.458 147.689,304.169 148.978,303.200 150.764 C 301.721 153.489,299.587 156.259,298.463 156.911 C 297.790 157.302,296.832 158.202,296.336 158.911 C 295.840 159.620,294.616 161.037,293.617 162.059 C 292.618 163.082,291.485 164.252,291.100 164.659 C 290.340 165.463,287.544 168.270,286.638 169.138 C 286.329 169.434,285.356 170.396,284.476 171.276 C 283.596 172.156,282.575 173.174,282.207 173.538 C 281.838 173.902,280.835 174.920,279.977 175.800 C 279.119 176.680,278.160 177.642,277.847 177.938 C 277.533 178.234,276.556 179.196,275.676 180.076 C 274.796 180.956,273.775 181.974,273.407 182.338 C 273.038 182.702,272.026 183.720,271.157 184.600 C 270.288 185.480,269.415 186.348,269.217 186.528 C 268.855 186.858,266.233 189.500,265.038 190.738 C 264.215 191.591,261.609 194.197,260.676 195.100 C 259.744 196.002,257.202 198.544,256.300 199.476 C 255.395 200.411,252.546 203.261,251.900 203.876 C 251.625 204.139,250.624 205.129,249.676 206.076 C 248.729 207.024,247.679 208.070,247.345 208.400 C 247.010 208.730,246.035 209.720,245.177 210.600 C 244.319 211.480,243.332 212.470,242.985 212.800 C 242.171 213.572,239.374 216.334,238.866 216.866 C 238.327 217.429,234.968 220.786,234.464 221.264 C 233.791 221.903,230.480 225.225,230.127 225.616 C 229.947 225.815,229.080 226.688,228.200 227.557 C 227.320 228.426,226.269 229.466,225.865 229.868 C 225.109 230.622,221.332 234.193,219.331 236.048 C 218.709 236.624,217.728 237.614,217.152 238.248 C 216.576 238.882,215.586 239.857,214.952 240.416 C 214.318 240.974,213.530 241.733,213.200 242.102 C 212.870 242.471,211.700 243.649,210.600 244.720 C 209.500 245.790,208.375 246.921,208.101 247.233 C 207.826 247.545,206.502 248.790,205.159 250.000 C 202.674 252.238,201.664 253.239,197.400 257.700 C 196.080 259.081,194.365 260.682,193.588 261.258 C 192.812 261.835,191.826 262.957,191.397 263.753 C 190.969 264.549,190.456 265.200,190.258 265.200 C 189.806 265.200,185.377 269.422,179.721 275.247 C 178.357 276.651,176.664 278.242,175.959 278.781 C 175.254 279.321,174.322 280.364,173.889 281.099 C 173.455 281.833,172.448 282.789,171.650 283.221 C 170.853 283.654,169.930 284.158,169.600 284.341 C 169.270 284.525,168.144 285.088,167.097 285.594 C 165.182 286.520,163.892 288.078,163.396 290.066 C 163.031 291.530,161.918 291.865,155.600 292.415 C 146.499 293.206,141.724 294.960,139.493 298.331 C 138.024 300.552,135.216 301.013,125.338 300.656 C 116.380 300.333,117.049 300.799,116.419 294.434 C 115.292 283.061,116.427 271.211,118.756 270.022 C 122.293 268.217,123.507 265.126,125.238 253.508 C 125.919 248.944,126.261 247.577,126.758 247.438 C 127.111 247.340,128.030 247.137,128.800 246.986 C 131.737 246.412,133.515 244.096,134.178 239.979 C 134.399 238.606,134.486 238.542,136.833 238.058 C 140.323 237.337,141.857 235.819,142.545 232.405 L 143.068 229.811 144.834 229.515 C 148.990 228.818,150.829 227.027,151.408 223.113 C 151.703 221.119,151.749 221.082,154.600 220.598 C 157.818 220.052,158.964 218.862,159.983 215.008 L 160.616 212.616 163.008 211.983 C 166.855 210.966,168.030 209.838,168.616 206.600 C 169.058 204.153,169.439 203.697,171.295 203.388 C 175.127 202.750,176.830 201.056,177.433 197.282 C 177.746 195.329,178.091 194.989,180.080 194.684 C 183.744 194.122,185.557 192.285,186.188 188.495 C 186.495 186.649,186.958 186.257,189.336 185.828 C 192.718 185.217,193.750 184.156,194.783 180.224 C 195.362 178.022,195.509 177.824,196.804 177.513 C 201.476 176.389,202.964 175.033,203.454 171.456 C 203.758 169.241,203.951 169.072,206.897 168.438 C 210.274 167.712,212.400 165.096,212.400 161.668 C 212.400 160.695,213.167 160.220,215.386 159.818 C 218.795 159.202,220.077 157.822,220.971 153.808 L 221.415 151.817 223.808 151.184 C 227.655 150.166,228.830 149.038,229.416 145.800 C 229.875 143.261,230.221 142.894,232.623 142.395 C 235.799 141.736,237.413 140.211,238.037 137.280 C 238.639 134.453,238.854 134.239,241.697 133.633 C 244.819 132.968,246.171 131.582,246.900 128.299 L 247.454 125.806 249.827 125.179 C 253.914 124.099,255.136 122.812,255.787 118.902 C 256.119 116.909,256.119 116.908,258.846 116.391 C 262.439 115.710,264.169 113.902,264.646 110.331 L 264.895 108.462 266.947 108.197 C 268.076 108.052,270.080 107.642,271.400 107.287 C 275.752 106.116,280.563 105.930,288.200 106.636 M277.963 118.453 C 270.143 118.880,267.792 120.170,266.994 124.474 C 266.643 126.368,265.904 126.980,263.207 127.611 C 260.385 128.272,259.050 129.607,258.180 132.641 C 257.324 135.626,257.136 135.844,255.150 136.162 C 251.725 136.709,250.345 138.016,249.397 141.611 C 248.806 143.851,247.957 144.757,246.400 144.806 C 243.705 144.893,241.109 147.386,240.604 150.374 C 240.274 152.330,239.572 152.943,236.735 153.754 C 234.004 154.535,232.690 155.924,232.014 158.744 C 231.463 161.037,230.760 161.794,228.800 162.204 C 225.654 162.861,223.767 164.615,223.342 167.274 C 223.021 169.279,221.820 170.800,220.558 170.800 C 217.751 170.800,215.020 173.257,214.582 176.178 C 214.258 178.344,213.638 178.924,210.781 179.741 C 207.814 180.589,205.600 183.232,205.600 185.925 C 205.600 187.037,204.460 187.837,202.088 188.392 C 199.429 189.013,197.883 190.503,197.230 193.071 C 196.496 195.960,196.319 196.146,193.637 196.849 C 190.535 197.661,189.368 198.746,188.555 201.572 C 187.616 204.834,187.585 204.868,184.784 205.634 C 181.611 206.503,180.269 207.857,179.630 210.832 C 179.082 213.389,178.626 213.997,177.251 214.009 C 174.215 214.034,171.888 216.051,171.017 219.412 C 170.301 222.172,169.845 222.612,167.306 222.993 C 164.401 223.429,162.013 226.426,162.002 229.651 C 161.999 230.554,161.298 231.042,159.200 231.603 C 155.509 232.589,154.093 234.080,153.443 237.660 C 153.132 239.377,152.687 239.805,150.800 240.203 C 147.171 240.967,144.835 243.399,144.809 246.438 C 144.797 247.772,143.791 248.660,141.890 249.012 C 138.030 249.729,136.777 251.672,135.567 258.821 C 134.641 264.288,134.535 264.511,132.340 265.630 C 129.010 267.329,127.539 271.493,128.364 276.885 C 129.946 287.218,135.313 289.979,142.137 283.972 C 144.120 282.227,144.134 282.223,154.598 281.194 C 161.815 280.483,165.193 278.843,166.717 275.309 C 167.636 273.178,169.106 271.634,171.200 270.600 C 173.214 269.606,174.713 268.076,175.240 266.478 C 175.783 264.833,177.958 262.809,179.901 262.141 C 181.754 261.504,183.478 259.793,184.039 258.034 C 184.667 256.065,186.226 254.487,188.600 253.417 C 190.948 252.359,191.689 251.604,192.760 249.184 C 193.703 247.051,195.198 245.606,197.478 244.622 C 199.527 243.738,200.558 242.685,201.418 240.595 C 202.275 238.512,203.775 236.944,206.000 235.802 C 208.165 234.692,209.359 233.474,210.158 231.562 C 210.805 230.014,213.651 227.200,214.570 227.200 C 215.513 227.200,217.582 225.205,218.461 223.450 C 219.555 221.263,221.477 219.274,223.195 218.550 C 225.078 217.756,226.299 216.552,227.402 214.400 C 228.494 212.271,230.001 210.789,232.200 209.683 C 234.166 208.694,235.376 207.433,236.158 205.562 C 236.815 203.990,239.656 201.200,240.600 201.200 C 241.559 201.200,244.317 198.464,244.784 197.049 C 245.299 195.487,247.708 193.118,249.496 192.416 C 250.946 191.846,253.600 189.120,253.600 188.200 C 253.600 187.256,256.390 184.415,257.962 183.758 C 259.885 182.954,261.095 181.761,262.214 179.564 C 263.207 177.613,265.639 175.200,266.613 175.200 C 267.521 175.200,270.249 172.537,270.817 171.096 C 271.574 169.174,273.153 167.630,275.400 166.613 C 277.784 165.534,278.877 164.420,279.927 162.000 C 280.814 159.955,282.401 158.364,284.296 157.617 C 285.719 157.056,288.400 154.326,288.400 153.437 C 288.400 152.471,291.202 149.471,292.752 148.777 C 301.203 144.993,300.596 124.629,291.908 120.476 C 287.706 118.467,284.973 118.071,277.963 118.453 M285.541 122.245 C 286.694 122.820,288.125 123.922,288.719 124.694 C 289.314 125.467,290.678 127.201,291.750 128.549 C 295.705 133.519,295.923 135.543,292.926 139.470 C 292.128 140.516,290.849 142.439,290.085 143.743 C 288.328 146.741,286.273 149.033,284.105 150.415 C 283.153 151.021,281.704 152.552,280.800 153.905 C 279.126 156.412,276.973 158.577,274.969 159.768 C 274.326 160.151,273.218 161.313,272.506 162.352 C 270.899 164.694,269.588 165.948,266.917 167.695 C 265.613 168.548,264.238 169.950,263.240 171.445 C 261.840 173.541,257.722 177.200,256.762 177.200 C 256.576 177.200,255.810 178.161,255.058 179.336 C 253.420 181.896,251.187 184.135,248.978 185.432 C 248.086 185.956,246.962 187.086,246.480 187.943 C 245.378 189.903,242.722 192.595,240.470 194.034 C 239.518 194.642,238.238 195.930,237.624 196.897 C 236.217 199.116,233.885 201.395,231.724 202.664 C 230.787 203.214,229.611 204.387,229.057 205.324 C 227.780 207.484,225.053 210.215,222.924 211.464 C 221.964 212.028,220.818 213.181,220.242 214.164 C 219.138 216.048,214.875 220.195,213.640 220.587 C 213.212 220.723,212.317 221.682,211.651 222.717 C 210.284 224.844,207.718 227.419,205.521 228.869 C 204.708 229.406,203.300 230.957,202.393 232.316 C 201.485 233.675,199.835 235.465,198.727 236.293 C 196.266 238.133,195.239 239.164,193.070 241.976 C 192.147 243.172,190.268 244.972,188.895 245.976 C 187.523 246.979,185.932 248.520,185.360 249.400 C 183.908 251.634,182.095 253.465,180.084 254.725 C 179.141 255.316,177.501 256.985,176.440 258.432 C 175.136 260.212,173.619 261.659,171.756 262.900 C 170.240 263.909,168.652 265.335,168.227 266.068 C 166.892 268.371,165.206 270.261,163.271 271.625 C 162.242 272.350,160.619 273.650,159.664 274.513 C 152.948 280.586,137.623 281.233,134.473 275.577 L 133.483 273.800 134.529 272.263 C 135.576 270.724,136.683 267.509,138.611 260.411 C 139.771 256.142,140.609 254.844,143.900 252.217 C 145.165 251.208,146.830 249.534,147.600 248.497 C 148.370 247.460,149.699 245.979,150.554 245.206 C 151.409 244.433,153.098 242.900,154.307 241.800 C 155.516 240.700,156.921 239.146,157.428 238.347 C 157.935 237.548,159.386 236.107,160.652 235.145 C 161.918 234.182,163.977 232.136,165.226 230.597 C 166.476 229.059,168.556 226.979,169.849 225.976 C 171.142 224.973,173.010 223.066,174.000 221.738 C 174.990 220.411,176.970 218.435,178.400 217.347 C 179.830 216.259,181.810 214.278,182.800 212.946 C 183.790 211.613,185.646 209.752,186.924 208.810 C 188.202 207.868,190.235 205.860,191.441 204.349 C 192.647 202.837,194.571 200.900,195.717 200.045 C 197.965 198.366,199.774 196.529,201.124 194.556 C 201.591 193.872,203.134 192.461,204.551 191.421 C 205.969 190.380,207.961 188.394,208.980 187.007 C 209.998 185.621,211.499 184.036,212.315 183.486 C 214.504 182.011,216.438 180.089,218.338 177.500 C 219.266 176.235,220.156 175.200,220.315 175.200 C 220.986 175.200,224.891 171.622,226.545 169.493 C 227.528 168.227,229.416 166.377,230.742 165.380 C 232.067 164.384,234.059 162.414,235.167 161.004 C 236.276 159.593,238.201 157.670,239.445 156.731 C 240.689 155.791,242.572 153.881,243.628 152.486 C 244.684 151.090,246.716 149.065,248.143 147.985 C 249.570 146.904,251.567 144.942,252.582 143.623 C 253.596 142.305,255.502 140.399,256.817 139.387 C 258.132 138.375,260.198 136.306,261.408 134.790 C 262.618 133.274,264.461 131.451,265.504 130.739 C 266.547 130.027,268.960 127.949,270.867 126.122 C 272.774 124.295,274.484 122.790,274.667 122.777 C 274.850 122.764,276.260 122.415,277.800 122.000 C 281.611 120.974,283.083 121.021,285.541 122.245 M214.457 287.171 C 212.613 287.394,212.097 287.663,210.757 289.100 L 209.200 290.769 209.200 295.400 L 209.200 300.031 210.753 301.696 C 212.922 304.021,211.074 303.947,267.807 303.975 L 317.414 304.000 319.007 302.944 C 322.757 300.458,322.800 300.374,322.800 295.400 C 322.800 290.426,322.757 290.342,319.007 287.856 L 317.414 286.800 267.007 286.856 C 239.283 286.887,215.636 287.029,214.457 287.171 M318.100 290.557 C 318.691 291.005,318.800 291.763,318.800 295.400 C 318.800 299.037,318.691 299.795,318.100 300.243 C 317.121 300.987,213.222 301.062,212.480 300.320 C 212.164 300.004,212.000 298.320,212.000 295.400 C 212.000 292.480,212.164 290.796,212.480 290.480 C 213.222 289.738,317.121 289.813,318.100 290.557 " stroke="none" fill="#c47c14" fill-rule="evenodd"></path><path id="path4" d="M276.301 96.397 C 273.483 96.748,271.670 97.616,269.993 99.416 C 269.447 100.002,267.614 101.181,265.921 102.035 C 262.413 103.804,260.241 105.560,259.334 107.359 C 258.626 108.764,256.829 110.800,256.297 110.800 C 255.205 110.800,252.128 113.595,250.571 116.002 C 249.237 118.064,248.311 119.001,246.708 119.912 C 244.324 121.267,243.255 122.315,241.454 125.064 C 240.744 126.149,239.247 127.614,238.000 128.444 C 235.445 130.144,234.386 131.219,232.651 133.871 C 231.959 134.928,230.521 136.364,229.456 137.061 C 226.868 138.754,225.279 140.306,224.400 142.000 C 223.566 143.607,222.043 145.089,219.928 146.352 C 218.144 147.417,216.281 149.481,215.212 151.576 C 214.672 152.635,213.682 153.578,212.109 154.534 C 209.473 156.135,208.427 157.157,206.654 159.864 C 205.933 160.966,204.455 162.404,203.176 163.250 C 200.804 164.820,199.185 166.536,197.647 169.115 C 197.124 169.993,195.999 171.103,195.148 171.581 C 192.682 172.967,191.166 174.421,189.592 176.911 C 188.544 178.569,187.395 179.714,185.570 180.916 C 184.165 181.842,182.433 183.410,181.720 184.400 C 179.177 187.931,178.688 188.447,176.643 189.755 C 174.475 191.142,173.238 192.471,171.647 195.123 C 171.124 195.997,169.980 197.114,169.105 197.605 C 166.710 198.952,165.057 200.549,163.423 203.098 C 162.385 204.716,161.214 205.875,159.479 207.000 C 158.122 207.880,156.432 209.410,155.723 210.400 C 153.344 213.726,152.291 214.839,150.814 215.593 C 149.193 216.420,146.778 218.910,145.843 220.717 C 145.207 221.947,142.639 224.400,141.987 224.400 C 141.282 224.400,138.352 227.325,137.608 228.773 C 136.770 230.400,135.257 231.880,133.139 233.145 C 131.483 234.134,129.441 236.359,128.072 238.669 C 127.562 239.529,126.266 240.833,125.194 241.565 C 122.776 243.214,121.696 244.827,120.014 249.294 C 119.290 251.216,117.905 253.915,116.936 255.291 C 114.836 258.273,113.541 262.120,112.589 268.200 C 111.974 272.130,111.333 275.032,109.453 282.400 C 107.735 289.139,107.444 291.163,108.089 291.897 C 108.993 292.925,110.170 295.435,111.159 298.445 C 113.706 306.192,119.048 307.816,134.660 305.590 C 148.729 303.584,151.918 302.731,156.183 299.837 C 156.978 299.298,159.647 298.191,162.114 297.377 C 168.793 295.173,170.275 294.358,173.400 291.168 C 174.940 289.596,177.156 287.767,178.324 287.103 C 180.375 285.938,180.818 285.486,183.683 281.627 C 184.408 280.651,186.070 279.121,187.377 278.227 C 188.865 277.208,190.361 275.710,191.377 274.219 C 192.270 272.909,193.810 271.249,194.800 270.531 C 198.350 267.953,198.783 267.539,200.493 265.088 C 201.584 263.524,203.111 262.002,204.613 260.980 C 206.038 260.011,207.813 258.270,209.018 256.660 C 210.233 255.037,212.024 253.284,213.514 252.259 C 215.053 251.201,216.635 249.637,217.695 248.126 C 219.460 245.609,220.771 244.369,223.244 242.876 C 224.039 242.396,225.199 241.238,225.823 240.302 C 227.545 237.716,229.186 236.059,231.503 234.563 C 232.803 233.724,234.124 232.403,234.963 231.103 C 236.480 228.753,238.195 227.065,240.651 225.503 C 241.559 224.926,242.712 223.767,243.214 222.927 C 244.540 220.706,246.316 218.904,248.684 217.375 C 249.831 216.635,251.260 215.258,251.861 214.315 C 253.463 211.798,255.136 210.091,257.484 208.575 C 258.631 207.835,260.060 206.458,260.661 205.515 C 262.266 202.993,263.937 201.290,266.303 199.763 C 267.621 198.913,268.912 197.615,269.762 196.287 C 271.165 194.094,273.342 191.992,275.661 190.592 C 276.397 190.148,277.564 188.921,278.254 187.866 C 279.989 185.215,281.063 184.129,283.503 182.559 C 284.825 181.709,286.110 180.419,286.962 179.087 C 288.413 176.818,290.692 174.617,292.718 173.528 C 293.406 173.158,294.470 172.104,295.084 171.185 C 296.941 168.406,299.171 166.093,301.060 164.986 C 302.231 164.300,303.344 163.151,304.277 161.668 C 305.967 158.982,307.731 157.038,309.444 155.975 C 311.816 154.504,315.354 146.902,316.156 141.552 C 316.304 140.566,316.766 138.633,317.183 137.257 C 317.858 135.028,317.879 134.607,317.375 133.402 C 317.064 132.658,316.263 130.013,315.594 127.524 C 313.488 119.689,312.234 117.035,309.312 114.240 C 307.910 112.898,305.982 110.630,305.028 109.200 C 302.905 106.016,302.191 105.365,298.457 103.212 C 296.838 102.278,294.562 100.652,293.399 99.599 C 290.210 96.711,283.641 95.481,276.301 96.397 M284.400 99.376 C 287.430 100.332,291.302 102.134,293.290 103.513 C 294.329 104.234,296.279 105.344,297.622 105.979 C 300.731 107.450,301.290 107.973,302.670 110.711 C 303.310 111.980,304.962 114.097,306.478 115.591 C 311.791 120.827,314.579 129.728,313.623 138.400 C 312.961 144.405,310.437 151.636,308.481 153.131 C 305.314 155.552,304.054 156.907,302.822 159.219 C 301.736 161.258,301.071 161.944,298.739 163.439 C 296.736 164.723,295.652 165.746,294.877 167.086 C 293.503 169.460,291.454 171.507,289.064 172.891 C 287.821 173.611,286.811 174.621,286.091 175.864 C 284.718 178.235,282.661 180.303,280.355 181.634 C 279.271 182.259,278.064 183.444,277.299 184.634 C 275.114 188.034,274.798 188.385,273.163 189.219 C 271.131 190.256,268.772 192.608,267.880 194.489 C 267.137 196.053,266.124 196.970,263.084 198.831 C 261.862 199.578,260.775 200.681,260.084 201.875 C 258.705 204.257,256.657 206.305,254.275 207.684 C 253.081 208.375,251.978 209.462,251.231 210.684 C 249.515 213.488,248.396 214.820,247.444 215.192 C 245.533 215.936,243.175 218.104,241.906 220.282 C 241.163 221.557,239.969 222.960,239.253 223.400 C 236.105 225.333,234.567 226.757,233.204 229.000 C 232.402 230.320,231.162 231.760,230.448 232.200 C 227.321 234.128,225.769 235.551,224.431 237.719 C 223.388 239.410,222.349 240.451,220.600 241.562 C 217.940 243.251,217.006 244.183,215.436 246.713 C 214.851 247.656,213.643 248.916,212.750 249.513 C 210.118 251.275,208.077 253.177,207.144 254.739 C 205.861 256.885,204.782 257.985,203.123 258.836 C 201.284 259.779,198.954 262.139,197.977 264.050 C 197.185 265.596,195.942 266.723,193.044 268.519 C 192.000 269.166,190.766 270.416,190.119 271.483 C 188.693 273.834,187.023 275.499,184.636 276.950 C 183.337 277.739,182.156 278.985,180.872 280.921 C 179.383 283.166,178.570 283.965,176.900 284.824 C 174.027 286.303,172.118 287.819,170.860 289.620 C 169.731 291.237,165.033 293.768,161.000 294.931 C 159.900 295.249,157.920 295.816,156.600 296.191 C 155.280 296.566,152.870 297.595,151.245 298.477 C 144.197 302.302,131.227 304.559,121.801 303.600 C 115.692 302.979,114.667 302.147,113.415 296.800 C 113.028 295.150,112.465 293.201,112.164 292.469 C 111.554 290.991,111.908 285.679,112.993 280.000 C 113.308 278.350,113.679 276.100,113.817 275.000 C 114.353 270.729,116.122 264.135,117.305 262.000 C 119.696 257.684,121.105 254.557,121.992 251.600 C 123.350 247.071,123.754 246.304,125.576 244.792 C 128.508 242.357,130.168 240.589,131.339 238.657 C 132.063 237.461,133.373 236.172,134.939 235.113 C 137.626 233.297,137.761 233.159,139.824 230.134 C 140.698 228.852,142.218 227.409,143.828 226.334 C 145.673 225.100,146.947 223.829,148.240 221.929 C 149.539 220.019,150.826 218.737,152.753 217.432 C 154.421 216.303,155.782 215.015,156.321 214.055 C 157.495 211.966,159.925 209.518,161.960 208.374 C 162.929 207.830,164.196 206.586,164.974 205.417 C 166.817 202.646,167.834 201.618,170.446 199.884 C 171.996 198.856,173.211 197.592,174.362 195.812 C 175.610 193.883,176.681 192.811,178.605 191.567 C 180.290 190.477,181.608 189.234,182.420 187.969 C 183.994 185.516,185.700 183.816,188.079 182.331 C 189.173 181.648,190.444 180.373,191.122 179.279 C 192.573 176.936,194.011 175.501,196.684 173.727 C 197.832 172.965,199.171 171.680,199.659 170.871 C 201.112 168.467,202.385 167.095,204.791 165.344 C 206.042 164.433,207.501 163.115,208.033 162.414 C 210.184 159.577,212.576 157.173,214.182 156.232 C 215.253 155.604,216.566 154.235,217.741 152.519 C 218.765 151.023,220.248 149.350,221.037 148.800 C 223.800 146.874,225.241 145.474,226.656 143.342 C 227.441 142.160,228.803 140.699,229.683 140.096 C 232.571 138.117,234.045 136.691,235.414 134.550 C 236.350 133.088,237.599 131.891,239.484 130.648 C 241.197 129.520,242.618 128.203,243.320 127.092 C 244.677 124.946,246.821 122.852,249.114 121.433 C 250.093 120.827,251.404 119.471,252.172 118.270 C 253.555 116.109,255.535 114.196,258.309 112.343 C 259.179 111.761,260.501 110.387,261.246 109.288 C 263.044 106.637,264.434 105.579,267.843 104.268 C 269.407 103.666,271.425 102.541,272.328 101.768 C 273.904 100.420,276.095 99.710,280.600 99.086 C 281.260 98.995,281.980 98.895,282.200 98.864 C 282.420 98.834,283.410 99.064,284.400 99.376 M277.800 122.000 C 276.260 122.415,274.850 122.764,274.667 122.777 C 274.484 122.790,272.774 124.295,270.867 126.122 C 268.960 127.949,266.547 130.027,265.504 130.739 C 264.461 131.451,262.618 133.274,261.408 134.790 C 260.198 136.306,258.132 138.375,256.817 139.387 C 255.502 140.399,253.596 142.305,252.582 143.623 C 251.567 144.942,249.570 146.904,248.143 147.985 C 246.716 149.065,244.684 151.090,243.628 152.486 C 242.572 153.881,240.689 155.791,239.445 156.731 C 238.201 157.670,236.276 159.593,235.167 161.004 C 234.059 162.414,232.067 164.384,230.742 165.380 C 229.416 166.377,227.528 168.227,226.545 169.493 C 224.891 171.622,220.986 175.200,220.315 175.200 C 220.156 175.200,219.266 176.235,218.338 177.500 C 216.438 180.089,214.504 182.011,212.315 183.486 C 211.499 184.036,209.998 185.621,208.980 187.007 C 207.961 188.394,205.969 190.380,204.551 191.421 C 203.134 192.461,201.591 193.872,201.124 194.556 C 199.774 196.529,197.965 198.366,195.717 200.045 C 194.571 200.900,192.647 202.837,191.441 204.349 C 190.235 205.860,188.202 207.868,186.924 208.810 C 185.646 209.752,183.790 211.613,182.800 212.946 C 181.810 214.278,179.830 216.259,178.400 217.347 C 176.970 218.435,174.990 220.411,174.000 221.738 C 173.010 223.066,171.142 224.973,169.849 225.976 C 168.556 226.979,166.476 229.059,165.226 230.597 C 163.977 232.136,161.918 234.182,160.652 235.145 C 159.386 236.107,157.935 237.548,157.428 238.347 C 156.921 239.146,155.516 240.700,154.307 241.800 C 153.098 242.900,151.409 244.433,150.554 245.206 C 149.699 245.979,148.370 247.460,147.600 248.497 C 146.830 249.534,145.165 251.208,143.900 252.217 C 140.609 254.844,139.771 256.142,138.611 260.411 C 136.683 267.509,135.576 270.724,134.529 272.263 L 133.483 273.800 134.473 275.577 C 137.623 281.233,152.948 280.586,159.664 274.513 C 160.619 273.650,162.242 272.350,163.271 271.625 C 165.206 270.261,166.892 268.371,168.227 266.068 C 168.652 265.335,170.240 263.909,171.756 262.900 C 173.619 261.659,175.136 260.212,176.440 258.432 C 177.501 256.985,179.141 255.316,180.084 254.725 C 182.095 253.465,183.908 251.634,185.360 249.400 C 185.932 248.520,187.523 246.979,188.895 245.976 C 190.268 244.972,192.147 243.172,193.070 241.976 C 195.239 239.164,196.266 238.133,198.727 236.293 C 199.835 235.465,201.485 233.675,202.393 232.316 C 203.300 230.957,204.708 229.406,205.521 228.869 C 207.718 227.419,210.284 224.844,211.651 222.717 C 212.317 221.682,213.212 220.723,213.640 220.587 C 214.875 220.195,219.138 216.048,220.242 214.164 C 220.818 213.181,221.964 212.028,222.924 211.464 C 225.053 210.215,227.780 207.484,229.057 205.324 C 229.611 204.387,230.787 203.214,231.724 202.664 C 233.885 201.395,236.217 199.116,237.624 196.897 C 238.238 195.930,239.518 194.642,240.470 194.034 C 242.722 192.595,245.378 189.903,246.480 187.943 C 246.962 187.086,248.086 185.956,248.978 185.432 C 251.187 184.135,253.420 181.896,255.058 179.336 C 255.810 178.161,256.576 177.200,256.762 177.200 C 257.722 177.200,261.840 173.541,263.240 171.445 C 264.238 169.950,265.613 168.548,266.917 167.695 C 269.588 165.948,270.899 164.694,272.506 162.352 C 273.218 161.313,274.326 160.151,274.969 159.768 C 276.973 158.577,279.126 156.412,280.800 153.905 C 281.704 152.552,283.153 151.021,284.105 150.415 C 286.273 149.033,288.328 146.741,290.085 143.743 C 290.849 142.439,292.128 140.516,292.926 139.470 C 295.923 135.543,295.705 133.519,291.750 128.549 C 290.678 127.201,289.314 125.467,288.719 124.694 C 286.303 121.556,282.726 120.674,277.800 122.000 M284.508 124.615 C 285.375 125.204,286.426 126.466,287.011 127.622 C 287.567 128.718,288.916 130.603,290.010 131.812 C 292.385 134.434,292.399 134.563,290.565 136.964 C 289.776 137.998,288.608 139.995,287.970 141.402 C 286.619 144.382,285.028 146.311,282.196 148.403 C 281.079 149.228,279.290 151.094,278.222 152.549 C 277.154 154.004,275.306 155.930,274.115 156.829 C 272.924 157.728,271.134 159.514,270.137 160.798 C 269.141 162.081,267.150 163.993,265.715 165.048 C 264.279 166.102,262.421 167.889,261.586 169.019 C 260.751 170.149,259.125 171.867,257.972 172.837 C 256.819 173.807,255.138 175.387,254.238 176.348 C 253.337 177.309,251.340 179.328,249.800 180.834 C 248.260 182.340,246.370 184.216,245.600 185.002 C 244.830 185.789,242.940 187.678,241.400 189.200 C 239.860 190.721,237.880 192.700,237.000 193.597 C 236.120 194.494,234.140 196.475,232.600 198.000 C 231.060 199.524,229.170 201.406,228.400 202.182 C 226.596 203.998,221.598 208.996,219.782 210.800 C 219.006 211.570,217.124 213.460,215.600 215.000 C 214.075 216.540,212.093 218.520,211.195 219.400 C 210.297 220.280,208.419 222.170,207.023 223.600 C 205.626 225.030,203.610 227.022,202.542 228.027 C 201.474 229.032,199.896 230.715,199.037 231.768 C 198.177 232.820,196.580 234.388,195.488 235.251 C 194.397 236.113,192.624 237.940,191.549 239.310 C 190.474 240.679,188.752 242.430,187.723 243.200 C 185.376 244.955,184.204 246.121,182.271 248.622 C 181.430 249.710,179.909 251.230,178.890 252.000 C 177.871 252.770,176.579 253.924,176.019 254.565 C 174.967 255.767,171.124 259.610,167.734 262.848 C 166.670 263.865,164.826 265.811,163.636 267.173 C 162.446 268.534,160.786 269.999,159.946 270.427 C 159.107 270.856,157.513 272.011,156.406 272.995 C 153.597 275.489,152.795 275.825,147.710 276.636 L 143.229 277.350 141.224 276.411 C 138.020 274.911,137.457 274.105,138.181 272.053 C 138.508 271.128,139.041 268.983,139.367 267.286 C 140.447 261.661,142.626 256.512,144.360 255.487 C 146.324 254.327,149.103 251.621,150.390 249.616 C 151.146 248.437,152.702 246.884,154.192 245.821 C 155.717 244.732,157.608 242.833,158.979 241.011 C 160.225 239.355,161.400 238.000,161.590 238.000 C 162.275 238.000,166.564 233.760,167.659 232.000 C 168.275 231.010,169.907 229.379,171.285 228.376 C 172.664 227.372,174.547 225.572,175.472 224.376 C 177.575 221.652,178.452 220.775,181.176 218.672 C 182.372 217.747,184.172 215.864,185.176 214.485 C 186.179 213.107,187.810 211.474,188.800 210.857 C 190.821 209.596,193.231 207.073,194.197 205.207 C 194.550 204.524,195.802 203.349,196.979 202.596 C 198.157 201.843,200.083 200.116,201.260 198.758 C 204.067 195.520,205.086 194.535,207.708 192.525 C 208.909 191.604,210.458 189.984,211.151 188.925 C 211.844 187.866,213.704 186.010,215.285 184.800 C 216.866 183.590,218.979 181.478,219.980 180.106 C 220.981 178.734,222.905 176.814,224.256 175.839 C 225.710 174.790,227.483 172.986,228.600 171.421 C 229.639 169.966,230.963 168.529,231.544 168.228 C 233.349 167.292,236.310 164.450,237.676 162.343 C 238.395 161.233,239.437 160.091,239.991 159.803 C 241.764 158.884,244.677 156.068,246.150 153.849 C 246.970 152.613,248.391 151.176,249.489 150.471 C 251.641 149.090,253.313 147.427,255.154 144.834 C 255.844 143.863,257.082 142.622,257.904 142.078 C 260.144 140.596,261.521 139.251,263.448 136.663 C 264.483 135.275,266.155 133.702,267.571 132.787 C 268.881 131.941,270.909 130.321,272.077 129.189 C 277.079 124.340,281.635 122.663,284.508 124.615 M215.545 284.377 C 209.061 284.922,206.800 287.779,206.800 295.429 L 206.800 300.738 208.114 302.469 C 208.845 303.432,210.399 304.733,211.614 305.400 L 213.800 306.600 265.507 306.718 L 317.214 306.836 320.021 305.361 C 321.714 304.471,323.537 303.098,324.614 301.900 L 326.400 299.913 326.400 295.325 L 326.400 290.736 324.100 288.441 C 322.803 287.147,320.808 285.678,319.525 285.073 L 317.250 284.000 267.925 284.060 C 240.796 284.094,217.225 284.236,215.545 284.377 M319.007 287.856 C 322.757 290.342,322.800 290.426,322.800 295.400 C 322.800 300.374,322.757 300.458,319.007 302.944 L 317.414 304.000 267.807 303.975 C 211.074 303.947,212.922 304.021,210.753 301.696 L 209.200 300.031 209.200 295.400 L 209.200 290.769 210.757 289.100 C 212.902 286.800,209.888 286.920,267.007 286.856 L 317.414 286.800 319.007 287.856 " stroke="none" fill="#744c1c" fill-rule="evenodd"></path></g></svg>